<?xml version="1.0" encoding="UTF-8"?>
<svg id="Lager_1" data-name="Lager 1" xmlns="http://www.w3.org/2000/svg" viewBox="0 0 100 100">
  <path d="M92.19,15.54h-.72c-.27-.05-.54-.08-.81-.11l-40.66.05-40.66-.05c-.28.03-.55.06-.81.11h-.72c-3.89.84-6.67,3.83-7.2,7.78v53.37c.62,4.36,3.83,7.48,8.24,7.88h82.3c4.41-.4,7.62-3.52,8.24-7.88V23.31c-.53-3.95-3.31-6.94-7.2-7.78ZM6.86,25.92l24.05,23.94-24.05,24.22V25.92ZM44.86,54.81L11.08,21.21h77.83l-33.78,33.6c-1.57,1.2-3.35,1.82-5.14,1.87-1.79-.05-3.57-.67-5.14-1.87ZM69.09,49.86l24.05-23.94v48.16l-24.05-24.22ZM11.08,78.8l24.49-24.3c4.28,5.35,9.36,7.98,14.42,7.89,5.07.09,10.14-2.54,14.42-7.89l24.49,24.3H11.08Z"/>
</svg>