<svg id="sb_logo_pink-li" xmlns="http://www.w3.org/2000/svg"
    viewBox="0 0 2004.16 951.75">
    <defs>
        <style>
            .sb_logo_pink-li-2 {
                fill: #e12786;
            }
        </style>
    </defs>
    <g class="sb_logo_pink-li-2">
        <path class="skogsbrand_name-s"
            d="m231.54,749.76c-12-2.02-21.48-4.95-28.44-8.8v-38.75c7.51,4.4,16.72,8.11,27.62,11.13,10.9,3.02,20.75,4.54,29.54,4.54,5.31,0,9.16-.32,11.54-.97,2.38-.64,3.57-1.96,3.57-3.98,0-1.83-1.15-3.21-3.44-4.12-2.29-.92-6.55-2.2-12.78-3.85l-12.64-3.58c-11.18-3.29-20.02-6.82-26.52-10.58-6.51-3.75-11.27-8.34-14.29-13.74s-4.54-12.23-4.54-20.48c0-14.84,5.86-25.87,17.59-33.11,11.72-7.24,27.76-10.86,48.09-10.86,9.71,0,20.2,1.06,31.47,3.16,11.27,2.11,19.65,4.9,25.15,8.38v38.2c-5.68-3.67-13.29-6.82-22.81-9.48-9.53-2.66-18.23-3.98-26.11-3.98-10.81,0-16.21,1.83-16.21,5.49,0,1.65,1.33,3.02,3.98,4.13,2.65,1.1,7.28,2.38,13.88,3.85l11.54,2.75c11.91,3.12,21.07,6.69,27.48,10.72,6.41,4.03,10.9,8.75,13.46,14.15,2.56,5.4,3.85,12.14,3.85,20.2,0,13.01-5.73,23.36-17.18,31.05-11.45,7.7-27.89,11.54-49.33,11.54-10.99,0-22.49-1.01-34.49-3.02Z" />
        <path class="skogsbrand_name-k"
            d="m349.02,545.56h54.96v121.74l39.02-50.57h62.93l-49.19,63.48,56.61,68.43h-62.93l-46.44-56.06v56.06h-54.96v-203.09Z" />
        <path class="skogsbrand_name-o"
            d="m542.91,743.85c-12.55-5.95-22.22-14.24-28.99-24.87-6.78-10.62-10.17-22.72-10.17-36.28s3.39-25.37,10.17-36.01c6.78-10.62,16.44-18.96,28.99-25.01,12.55-6.05,27.25-9.07,44.11-9.07s31.6,3.02,44.25,9.07c12.64,6.05,22.35,14.39,29.13,25.01,6.78,10.63,10.17,22.64,10.17,36.01s-3.39,25.65-10.17,36.28c-6.78,10.63-16.49,18.92-29.13,24.87-12.64,5.95-27.39,8.93-44.25,8.93s-31.56-2.98-44.11-8.93Zm63.9-41.08c4.95-4.95,7.42-11.64,7.42-20.07s-2.47-15.07-7.42-19.92-11.54-7.28-19.79-7.28-14.8,2.43-19.65,7.28c-4.86,4.86-7.28,11.5-7.28,19.92s2.42,15.11,7.28,20.07c4.85,4.94,11.41,7.42,19.65,7.42s14.84-2.48,19.79-7.42Z" />
        <path class="skogsbrand_name-g"
            d="m733.09,809.39c-9.07-1.65-16.9-3.85-23.5-6.59v-36.55c14.47,6.22,31.14,9.34,50.02,9.34,11.91,0,20.61-2.43,26.11-7.28,5.49-4.86,8.24-11.96,8.24-21.3v-7.7c-4.95,4.04-11.13,7.28-18.55,9.76-7.42,2.48-15.25,3.71-23.5,3.71-13.92,0-26.25-2.94-36.97-8.8-10.72-5.86-18.96-14.11-24.73-24.73-5.77-10.62-8.66-22.81-8.66-36.55s2.89-26.2,8.66-36.82c5.77-10.62,13.97-18.83,24.6-24.6,10.62-5.78,22.9-8.66,36.83-8.66,8.61,0,16.76,1.43,24.46,4.26,7.7,2.85,14.29,6.83,19.79,11.96v-12.09h53.04v122.3c0,23.08-7.24,40.99-21.71,53.72-14.48,12.73-37.01,19.1-67.6,19.1-8.62,0-17.45-.83-26.52-2.48Zm50.02-103.75c4.85-3.02,8.47-7.09,10.85-12.23v-21.44c-2.38-5.13-6-9.16-10.85-12.09-4.86-2.93-10.4-4.4-16.63-4.4-8.61,0-15.44,2.38-20.47,7.14-5.04,4.77-7.56,11.37-7.56,19.79s2.52,15.62,7.56,20.48,11.86,7.28,20.47,7.28c6.23,0,11.77-1.51,16.63-4.54Z" />
        <path class="skogsbrand_name-s-2"
            d="m895.78,749.76c-12-2.02-21.48-4.95-28.44-8.8v-38.75c7.51,4.4,16.72,8.11,27.62,11.13,10.9,3.02,20.75,4.54,29.54,4.54,5.31,0,9.16-.32,11.54-.97,2.38-.64,3.57-1.96,3.57-3.98,0-1.83-1.15-3.21-3.44-4.12-2.29-.92-6.55-2.2-12.78-3.85l-12.64-3.58c-11.18-3.29-20.02-6.82-26.52-10.58-6.51-3.75-11.27-8.34-14.29-13.74-3.02-5.4-4.54-12.23-4.54-20.48,0-14.84,5.86-25.87,17.59-33.11,11.72-7.24,27.76-10.86,48.09-10.86,9.71,0,20.2,1.06,31.47,3.16,11.27,2.11,19.65,4.9,25.15,8.38v38.2c-5.68-3.67-13.29-6.82-22.81-9.48-9.53-2.66-18.23-3.98-26.11-3.98-10.81,0-16.21,1.83-16.21,5.49,0,1.65,1.33,3.02,3.98,4.13,2.65,1.1,7.28,2.38,13.88,3.85l11.54,2.75c11.91,3.12,21.07,6.69,27.48,10.72,6.41,4.03,10.9,8.75,13.46,14.15,2.56,5.4,3.85,12.14,3.85,20.2,0,13.01-5.73,23.36-17.18,31.05-11.45,7.7-27.89,11.54-49.33,11.54-10.99,0-22.49-1.01-34.49-3.02Z" />
        <path class="skogsbrand_name-b"
            d="m1085.95,748.66c-7.6-2.75-14.15-6.78-19.65-12.09v12.09h-53.04v-203.09h54.96v80.8c4.95-4.21,11.17-7.55,18.69-10.03,7.51-2.48,15.39-3.71,23.63-3.71,13.92,0,26.2,2.94,36.83,8.8,10.62,5.86,18.83,14.15,24.6,24.87,5.77,10.71,8.66,22.95,8.66,36.69s-2.88,26.15-8.66,36.69c-5.77,10.54-13.97,18.69-24.6,24.45-10.63,5.78-22.91,8.66-36.83,8.66-8.79,0-16.99-1.38-24.6-4.13Zm30.23-45.62c5.04-4.76,7.56-11.45,7.56-20.06s-2.52-15.34-7.56-20.2-11.86-7.28-20.47-7.28c-6.23,0-11.77,1.47-16.63,4.4-4.86,2.94-8.47,6.97-10.85,12.09v21.72c2.38,5.13,6,9.16,10.85,12.09,4.85,2.93,10.4,4.4,16.63,4.4,8.61,0,15.44-2.38,20.47-7.15Z" />
        <path class="skogsbrand_name-r"
            d="m1197.12,616.74h53.04v14.29c5.13-5.31,12.23-9.52,21.3-12.64s19.01-4.67,29.82-4.67v42.6c-11.54,0-21.8,1.56-30.78,4.67-8.98,3.12-15.11,7.69-18.41,13.74v73.92h-54.96v-131.92Z" />
        <path class="skogsbrand_name-a"
            d="m1309.65,741.09c-10.17-7.78-15.25-18.92-15.25-33.39s4.95-26.15,14.84-33.94c9.89-7.78,24.28-11.68,43.15-11.68,6.77,0,13.64.74,20.61,2.2,6.96,1.47,12.82,3.3,17.59,5.5v-2.48c0-6.05-2.98-10.62-8.93-13.74-5.95-3.11-14.25-4.67-24.87-4.67-15.94,0-30.6,3.21-43.97,9.62v-36.28c6.05-2.93,13.92-5.27,23.64-7.01,9.71-1.74,20.06-2.62,31.05-2.62,25.46,0,44.88,4.86,58.26,14.57,13.37,9.72,20.06,23.45,20.06,41.23v80.25h-51.94v-10.44c-4.4,4.4-10.44,7.93-18.14,10.58-7.7,2.66-16.21,3.99-25.56,3.99-16.86,0-30.37-3.9-40.54-11.69Zm71.32-22.95c4.21-1.83,7.42-4.21,9.62-7.14v-10.17c-6.78-4.4-14.48-6.59-23.08-6.59-5.13,0-9.12,1.19-11.96,3.57-2.84,2.38-4.26,5.68-4.26,9.89s1.38,7.24,4.13,9.62c2.75,2.39,6.69,3.58,11.81,3.58s9.53-.92,13.74-2.75Z" />
        <path class="skogsbrand_name-n"
            d="m1466.43,616.74h53.04v12.92c5.68-5.5,12.37-9.71,20.06-12.64,7.7-2.93,15.75-4.4,24.18-4.4,18.87,0,32.75,4.82,41.64,14.43s13.33,22.86,13.33,39.71v81.9h-55.24v-74.2c0-6.23-1.33-10.95-3.98-14.15-2.66-3.21-6.92-4.81-12.78-4.81-10.99,0-19.42,4.94-25.28,14.84v78.33h-54.96v-131.92Z" />
        <path class="skogsbrand_name-d"
            d="m1667.06,744.12c-10.63-5.77-18.83-13.92-24.6-24.45-5.77-10.54-8.66-22.76-8.66-36.69s2.89-25.98,8.66-36.69c5.77-10.72,13.97-19.01,24.6-24.87,10.62-5.86,22.9-8.8,36.83-8.8,8.42,0,16.35,1.24,23.77,3.71,7.42,2.48,13.6,5.82,18.55,10.03v-80.8h54.96v203.09h-53.04v-12.09c-5.5,5.32-12.05,9.35-19.65,12.09-7.6,2.75-15.8,4.13-24.6,4.13-13.93,0-26.2-2.89-36.83-8.66Zm68.29-38.33c4.85-2.93,8.47-6.97,10.85-12.09v-21.72c-2.38-5.13-6-9.16-10.85-12.09-4.86-2.93-10.4-4.4-16.63-4.4-8.61,0-15.44,2.43-20.47,7.28s-7.56,11.59-7.56,20.2,2.52,15.3,7.56,20.06c5.04,4.77,11.86,7.15,20.47,7.15,6.23,0,11.77-1.47,16.63-4.4Z" />
        <path class="skogsbrand_wave"
            d="m1647.14,374.26c-39.18,6.75-33.16,66.58-62.66,64.95-32.38-1.79-38.61-101.73-88.42-101.73-24.65,0-40.89,18.43-50.61,34.98-10.97,19.3-21.2,33.13-30.68,32.2-14.33-1.41-26.73-28.55-35.79-58.12-12.38-42.2-31.96-64.03-51.04-63.99-19.45.04-38.4,22.77-51.49,65.31-55.77,166.83-80.01-123.69-148.55-129.18-49.16-3.94-47.93,225.18-79.09,230.98-30.72,5.72-61.17-118.23-108.24-116.98-27.71.93-34.66,23.82-39.39,43.13-5.17,25.12-14.94,28.63-20.41,29.7-27.81,5.45-28.36-205.42-77.51-203.12-49.88,2.33-50.8,184.27-89.33,198.38-12.91,4.73-28.47-10.38-37.92-24.73-20.8-31.57-23.71-46.91-52.84-47.99-21.68.79-38.28,21.34-54.1,57.96-17.81,36.73-30.44,50.08-38.83,47.27-25.81-8.63-17.82-169.54-47.22-184.4-46.92-24.59-45.24,72.15-53.92,115.33-3.41,18.26-9.88,56.16-23.36,54.8-9.88-1-16.48-3.89-21.64-18.93-7.95-24.3-25.28-27.77-38.47-26.54-4.72.85-7.39,4.99-7.44,8.04-.27,3.06.72,9.44,9.1,10.08,11.68,0,15.28,6.18,20.87,26.11,4.65,16.59,11.01,39.3,38.36,39.3,44.89-3.74,37.84-104.43,50.43-148.62,3.66-12.85,8.69-21.87,13.56-21.53,7.28.52,9.18,10.54,10.88,15.25,15.35,42.68,6.85,148.68,46.4,149.82,27.89,1.45,42.62-24.79,56.82-49.65,16.4-29.96,27.16-40.18,38.46-40.47,38.87-.76,45.98,74.85,89.73,77.84,56,2.35,55.57-185.9,89.31-188.3,30.27-2.15,24.79,182.18,75.65,183.29,47.54.25,32.64-81.95,62.8-83.8,14.72-.9,32.12,35.96,46.07,64.85,24.24,52.66,42.15,75.25,61.8,75.25,28.96,0,38.83-57.91,50.55-132.9,11.16-61.58,22.51-93.73,34.55-94.89,32.33-3.11,65.92,169.14,107.9,173.22,45.86,4.39,54.18-118.39,87.64-116.36,28.66,1.74,36.66,125.99,83.34,125.69,46.73.02,49.13-86.02,78.23-89.81,33.76-4.4,41,136.25,91.03,134.89,49.33-1.35,38.45-89.54,70.71-98.89,3.79-1.1,12.46-2.09,11.78-10.51-.25-3.91-4-9.63-17.02-7.21Z" />
    </g>
</svg>